<svg width="18" height="25" viewBox="0 0 18 25" fill="none" xmlns="http://www.w3.org/2000/svg">
<path fill-rule="evenodd" clip-rule="evenodd" d="M4.55344 4.78717C4.42024 4.7868 4.29183 4.80639 4.16982 4.84363C4.00255 4.36459 3.78162 3.93482 3.53033 3.60829C3.10383 3.05409 2.43116 2.83557 1.5 2.83557V4.78469C2.06884 4.78469 2.39617 4.89103 2.46967 4.98653C2.75315 5.35489 3 6.10334 3 6.73382L3.00754 6.87164L3.74244 13.5562C2.51277 13.6391 1.56015 14.88 1.50092 16.4311L1.5 17.454C1.57262 19.0561 2.52207 20.2885 3.70743 20.3761L3.87769 20.3764C4.1863 21.5126 5.01998 22.3268 6 22.3268C6.97966 22.3268 7.81309 21.5132 8.12197 20.3777H9.87803C10.1869 21.5132 11.0203 22.3268 12 22.3268C13.2426 22.3268 14.25 21.0178 14.25 19.4031C14.25 17.7884 13.2426 16.4794 12 16.4794C11.0203 16.4794 10.1869 17.293 9.87803 18.4286H8.12197C7.81309 17.293 6.97966 16.4794 6 16.4794C5.02034 16.4794 4.18691 17.293 3.87803 18.4286H3.75C3.36751 18.3987 3.0244 17.9534 2.99865 17.3956L3 16.4794C3.02022 15.9739 3.36098 15.5311 3.78717 15.5037L5.26777 15.5041L5.2785 15.5049H12.8376L12.9483 15.4592C13.517 15.2247 13.9722 14.6683 14.1878 13.948L14.2668 13.7448L14.5235 13.0839C14.7891 12.3998 15.0547 11.7146 15.3135 11.0451C15.9474 9.40516 16.3461 8.36295 16.4344 8.10703C16.8878 6.79273 15.9693 5.78115 15.0305 5.75961L4.55344 4.78717ZM12.5771 13.5557H5.33466C5.2865 13.5384 5.2498 13.4853 5.24262 13.4193L4.5077 6.73453L14.92 7.70343C14.7378 8.18623 14.4067 9.04856 13.9731 10.1702L13.9622 10.1983C13.7147 10.8385 13.4495 11.5229 13.1843 12.2061L12.9279 12.8661L12.8307 13.1161L12.7941 13.2266C12.7549 13.3684 12.6771 13.4849 12.5771 13.5557ZM12 20.3777C12.4142 20.3777 12.75 19.9414 12.75 19.4031C12.75 18.8649 12.4142 18.4286 12 18.4286C11.5858 18.4286 11.25 18.8649 11.25 19.4031C11.25 19.9414 11.5858 20.3777 12 20.3777ZM6.75 19.4031C6.75 19.9414 6.41421 20.3777 6 20.3777C5.58579 20.3777 5.25 19.9414 5.25 19.4031C5.25 18.8649 5.58579 18.4286 6 18.4286C6.41421 18.4286 6.75 18.8649 6.75 19.4031Z" fill="black"/>
</svg>
